<?xml version="1.0" encoding="UTF-8" standalone="no"?>
<!-- Created with Inkscape (http://www.inkscape.org/) -->

<svg
   xmlns:dc="http://purl.org/dc/elements/1.1/"
   xmlns:cc="http://creativecommons.org/ns#"
   xmlns:rdf="http://www.w3.org/1999/02/22-rdf-syntax-ns#"
   xmlns:svg="http://www.w3.org/2000/svg"
   xmlns="http://www.w3.org/2000/svg"
   xmlns:sodipodi="http://sodipodi.sourceforge.net/DTD/sodipodi-0.dtd"
   xmlns:inkscape="http://www.inkscape.org/namespaces/inkscape"
   width="345.96863mm"
   height="138.95599mm"
   viewBox="0 0 1225.8731 492.36375"
   id="svg2"
   version="1.1"
   inkscape:version="0.91 r13725"
   sodipodi:docname="ace-net-logo-name-tag.svg">
  <defs
     id="defs4">
    <clipPath
       id="clipPath4150"
       clipPathUnits="userSpaceOnUse">
      <path
         inkscape:connector-curvature="0"
         id="path4152"
         d="m 0,0 1008,0 0,450 L 0,450 0,0 Z" />
    </clipPath>
    <linearGradient
       id="linearGradient4170"
       spreadMethod="pad"
       gradientTransform="matrix(-426.00718,-363.8445,-363.8445,426.00718,443.74822,427.90487)"
       gradientUnits="userSpaceOnUse"
       y2="0"
       x2="1"
       y1="0"
       x1="0">
      <stop
         id="stop4172"
         offset="0"
         style="stop-opacity:1;stop-color:#5140a1" />
      <stop
         id="stop4174"
         offset="0.1527389"
         style="stop-opacity:1;stop-color:#5140a1" />
      <stop
         id="stop4176"
         offset="0.167857"
         style="stop-opacity:1;stop-color:#5140a1" />
      <stop
         id="stop4178"
         offset="0.70246909"
         style="stop-opacity:1;stop-color:#47bdbb" />
      <stop
         id="stop4180"
         offset="0.755385"
         style="stop-opacity:1;stop-color:#47bdbb" />
      <stop
         id="stop4182"
         offset="1"
         style="stop-opacity:1;stop-color:#ffffff" />
    </linearGradient>
    <clipPath
       id="clipPath4190"
       clipPathUnits="userSpaceOnUse">
      <path
         inkscape:connector-curvature="0"
         id="path4192"
         d="m 0,0 1008,0 0,450 L 0,450 0,0 Z" />
    </clipPath>
  </defs>
  <sodipodi:namedview
     id="base"
     pagecolor="#ffffff"
     bordercolor="#666666"
     borderopacity="1.0"
     inkscape:pageopacity="0.0"
     inkscape:pageshadow="2"
     inkscape:zoom="0.35"
     inkscape:cx="612.93657"
     inkscape:cy="246.18188"
     inkscape:document-units="px"
     inkscape:current-layer="layer1"
     showgrid="false"
     fit-margin-top="0"
     fit-margin-left="0"
     fit-margin-right="0"
     fit-margin-bottom="0"
     inkscape:window-width="1920"
     inkscape:window-height="1027"
     inkscape:window-x="-8"
     inkscape:window-y="-8"
     inkscape:window-maximized="1" />
  <metadata
     id="metadata7">
    <rdf:RDF>
      <cc:Work
         rdf:about="">
        <dc:format>image/svg+xml</dc:format>
        <dc:type
           rdf:resource="http://purl.org/dc/dcmitype/StillImage" />
        <dc:title></dc:title>
      </cc:Work>
    </rdf:RDF>
  </metadata>
  <g
     inkscape:label="Layer 1"
     inkscape:groupmode="layer"
     id="layer1"
     transform="translate(700.79371,-286.18033)">
    <g
       transform="matrix(1.25,0,0,-1.25,-718.86246,821.48283)"
       inkscape:label="ACENET LOGO NAME TAG"
       id="g4144">
      <g
         id="g4146">
        <g
           clip-path="url(#clipPath4150)"
           id="g4148">
          <g
             transform="translate(446.4945,288.4994)"
             id="g4154">
            <path
               inkscape:connector-curvature="0"
               id="path4156"
               style="fill:#3845a3;fill-opacity:1;fill-rule:nonzero;stroke:none"
               d="m 0,0 -15.014,0 -38.082,-71.988 13.048,0 8.297,16.108 48.487,0 8.296,-16.108 13.05,0 L 0,0 Z m -25.958,-45.142 18.563,34.879 18.337,-34.879 -36.9,0 z M 90.183,2.287 c -12.528,0 -23.035,-3.216 -31.519,-9.645 -9.745,-7.358 -14.617,-16.838 -14.617,-28.437 0,-11.8 4.805,-21.345 14.418,-28.637 8.417,-6.363 18.991,-9.545 31.718,-9.545 9.081,0 16.887,1.342 23.416,4.027 6.529,2.685 12.38,7.043 17.55,13.075 l -10.241,5.668 c -7.293,-7.889 -17.301,-11.833 -30.029,-11.833 -10.539,0 -18.909,2.502 -25.106,7.508 -6.199,5.004 -9.297,11.583 -9.297,19.737 0,7.887 3.132,14.383 9.396,19.488 6.265,5.104 14.368,7.656 24.311,7.656 13.125,0 23.332,-3.877 30.625,-11.633 l 10.838,3.878 C 122.034,-3.945 108.213,2.287 90.183,2.287 m 140.794,-63.537 -63.437,0 0,21.279 42.159,0 0,10.738 -42.159,0 0,18.494 60.653,0 0,10.739 -72.585,0 0,-71.988 75.369,0 0,10.738 z M 338.661,0 l -11.932,0 0,-59.064 L 271.743,0 l -14.815,0 0,-71.988 11.932,0 0,59.032 54.957,-59.032 14.844,0 0,71.988 z m 105.396,-61.25 -63.437,0 0,21.279 42.159,0 0,10.738 -42.159,0 0,18.494 60.653,0 0,10.739 -72.585,0 0,-71.988 75.369,0 0,10.738 z M 548.659,0 467.92,0 l 0,-10.739 34.404,0 0,-61.249 11.931,0 0,61.249 34.404,0 0,10.739 z" />
          </g>
        </g>
      </g>
      <g
         id="g4158">
        <g
           id="g4160">
          <g
             id="g4166">
            <g
               id="g4168">
              <path
                 inkscape:connector-curvature="0"
                 id="path4184"
                 style="fill:url(#linearGradient4170);stroke:none"
                 d="M 383.618,402.244 19.955,67.685 c 0.115,-0.142 0.214,-0.292 0.333,-0.432 l 0,0 c 0.157,-0.184 0.33,-0.342 0.491,-0.52 l 0,0 386.934,306.536 35.24,54.973 -59.335,-25.998 z M 262.316,349.096 92.57,192.935 102.962,186.714 364.385,393.818 262.316,349.096 Z m -111.037,-219.042 4.518,-11.232 180.445,142.952 60.06,93.694 -245.023,-225.414 z m -11.394,165.398 -86.157,-79.26 10.149,-6.077 146.964,116.427 -70.956,-31.09 z M 16.097,241.215 14.455,239.703 25.232,233.251 59.028,260.026 16.097,241.215 Z M 168.277,87.79 172.689,76.819 264.107,149.24 305.836,214.339 168.277,87.79 Z m 16.806,-41.789 4.686,-11.65 1.403,1.112 25.217,39.339 -31.306,-28.801 z" />
            </g>
          </g>
        </g>
      </g>
      <g
         id="g4186">
        <g
           clip-path="url(#clipPath4190)"
           id="g4188">
          <g
             transform="translate(399.0832,167.4762)"
             id="g4194">
            <path
               inkscape:connector-curvature="0"
               id="path4196"
               style="fill:#231f20;fill-opacity:1;fill-rule:nonzero;stroke:none"
               d="m 0,0 c 0.742,1.217 1.664,2.215 2.767,2.995 1.103,0.78 2.358,1.36 3.766,1.741 1.407,0.38 2.89,0.57 4.45,0.57 0.989,0 2.083,-0.095 3.281,-0.285 1.198,-0.191 2.311,-0.533 3.338,-1.027 1.027,-0.495 1.883,-1.161 2.568,-1.997 0.684,-0.837 1.027,-1.921 1.027,-3.252 0,-0.723 -0.067,-1.522 -0.2,-2.397 -0.134,-0.875 -0.295,-1.759 -0.485,-2.653 -0.191,-0.894 -0.391,-1.769 -0.599,-2.624 -0.21,-0.856 -0.391,-1.608 -0.542,-2.254 -0.343,-1.636 -0.638,-2.996 -0.885,-4.08 -0.247,-1.084 -0.447,-1.988 -0.599,-2.71 -0.152,-0.723 -0.266,-1.312 -0.342,-1.769 -0.077,-0.456 -0.114,-0.913 -0.114,-1.369 0,-0.533 0.208,-0.866 0.628,-0.999 0.418,-0.133 0.836,-0.199 1.255,-0.199 0.265,0 0.503,0.009 0.713,0.028 0.209,0.019 0.447,0.048 0.713,0.086 l -0.513,-2.796 c -0.952,-0.19 -1.94,-0.285 -2.967,-0.285 -2.017,0 -3.063,1.046 -3.138,3.138 0,0.266 0.008,0.532 0.028,0.799 0.019,0.265 0.047,0.532 0.086,0.799 l -0.114,0.114 c -1.027,-1.712 -2.473,-3.034 -4.337,-3.966 -1.864,-0.931 -3.823,-1.398 -5.877,-1.398 -1.369,0 -2.624,0.153 -3.765,0.457 -1.142,0.305 -2.121,0.779 -2.939,1.426 -0.818,0.647 -1.465,1.484 -1.94,2.511 -0.475,1.027 -0.713,2.262 -0.713,3.708 0,1.56 0.276,2.872 0.827,3.937 0.551,1.065 1.303,1.94 2.254,2.625 0.95,0.685 2.035,1.227 3.252,1.626 1.217,0.399 2.491,0.713 3.823,0.941 1.94,0.304 3.699,0.447 5.278,0.428 1.578,-0.019 2.938,0.123 4.08,0.428 1.178,0.304 2.062,0.856 2.653,1.655 0.589,0.799 0.884,2.168 0.884,4.108 0,0.875 -0.2,1.588 -0.599,2.14 -0.399,0.551 -0.894,0.979 -1.484,1.283 -0.59,0.304 -1.255,0.514 -1.997,0.628 C 12.781,2.225 12.068,2.282 11.383,2.282 10.242,2.282 9.158,2.168 8.131,1.94 7.104,1.712 6.171,1.341 5.335,0.827 4.498,0.314 3.803,-0.371 3.252,-1.227 2.7,-2.083 2.33,-3.119 2.14,-4.336 l -3.595,0 C -1.227,-2.663 -0.742,-1.218 0,0 m 16.233,-9.129 c -0.305,-0.342 -0.733,-0.619 -1.284,-0.827 -0.552,-0.21 -1.132,-0.371 -1.74,-0.485 -0.609,-0.115 -1.227,-0.191 -1.855,-0.229 -0.627,-0.038 -1.169,-0.076 -1.626,-0.114 -1.103,-0.076 -2.33,-0.181 -3.68,-0.314 -1.351,-0.133 -2.616,-0.419 -3.794,-0.855 -1.18,-0.438 -2.168,-1.084 -2.967,-1.94 -0.799,-0.856 -1.198,-2.064 -1.198,-3.623 0,-0.952 0.18,-1.76 0.542,-2.425 0.361,-0.666 0.846,-1.218 1.455,-1.655 0.608,-0.438 1.312,-0.752 2.111,-0.941 0.798,-0.191 1.616,-0.286 2.453,-0.286 2.89,0 5.23,0.779 7.018,2.34 1.788,1.559 2.967,3.651 3.538,6.276 l 1.141,4.964 -0.114,0.114 z m 36.744,7.36 c -0.342,0.875 -0.827,1.607 -1.455,2.197 -0.627,0.589 -1.389,1.046 -2.282,1.369 -0.894,0.323 -1.874,0.485 -2.938,0.485 -2.169,0 -4.043,-0.476 -5.621,-1.426 -1.578,-0.951 -2.901,-2.188 -3.965,-3.709 -1.065,-1.522 -1.854,-3.233 -2.368,-5.135 -0.513,-1.902 -0.77,-3.804 -0.77,-5.706 0,-1.293 0.161,-2.501 0.485,-3.623 0.323,-1.122 0.827,-2.092 1.512,-2.91 0.684,-0.818 1.54,-1.455 2.567,-1.911 1.027,-0.457 2.244,-0.685 3.652,-0.685 2.396,0 4.422,0.685 6.077,2.054 1.654,1.37 2.861,3.138 3.623,5.307 l 3.594,0 c -1.103,-3.424 -2.777,-6.001 -5.021,-7.732 -2.245,-1.731 -5.154,-2.596 -8.729,-2.596 -3.652,0 -6.458,1.103 -8.416,3.31 -1.96,2.205 -2.939,5.135 -2.939,8.786 0,2.283 0.361,4.565 1.084,6.847 0.722,2.282 1.769,4.317 3.138,6.105 1.37,1.788 3.043,3.243 5.021,4.365 1.978,1.122 4.223,1.683 6.733,1.683 1.598,0 3.081,-0.199 4.451,-0.599 1.369,-0.399 2.548,-1.018 3.537,-1.854 0.989,-0.837 1.749,-1.883 2.282,-3.138 0.533,-1.256 0.78,-2.739 0.742,-4.451 l -3.594,0 c 0.075,1.103 -0.058,2.092 -0.4,2.967 m 34.177,0 c -0.342,0.875 -0.827,1.607 -1.455,2.197 -0.627,0.589 -1.389,1.046 -2.282,1.369 -0.894,0.323 -1.874,0.485 -2.939,0.485 -2.168,0 -4.042,-0.476 -5.62,-1.426 -1.579,-0.951 -2.901,-2.188 -3.965,-3.709 -1.066,-1.522 -1.854,-3.233 -2.368,-5.135 -0.513,-1.902 -0.77,-3.804 -0.77,-5.706 0,-1.293 0.161,-2.501 0.485,-3.623 0.322,-1.122 0.827,-2.092 1.512,-2.91 0.684,-0.818 1.54,-1.455 2.567,-1.911 1.027,-0.457 2.244,-0.685 3.652,-0.685 2.396,0 4.422,0.685 6.076,2.054 1.655,1.37 2.862,3.138 3.624,5.307 l 3.594,0 c -1.104,-3.424 -2.777,-6.001 -5.021,-7.732 -2.245,-1.731 -5.155,-2.596 -8.73,-2.596 -3.651,0 -6.457,1.103 -8.415,3.31 -1.96,2.205 -2.939,5.135 -2.939,8.786 0,2.283 0.361,4.565 1.084,6.847 0.722,2.282 1.769,4.317 3.138,6.105 1.37,1.788 3.043,3.243 5.021,4.365 1.978,1.122 4.223,1.683 6.733,1.683 1.598,0 3.081,-0.199 4.451,-0.599 1.369,-0.399 2.547,-1.018 3.537,-1.854 0.989,-0.837 1.749,-1.883 2.282,-3.138 0.533,-1.256 0.779,-2.739 0.742,-4.451 l -3.595,0 c 0.076,1.103 -0.057,2.092 -0.399,2.967 m 34.662,-5.278 c 0.019,0.362 0.029,0.732 0.029,1.113 0,2.511 -0.714,4.508 -2.14,5.991 -1.427,1.484 -3.395,2.225 -5.906,2.225 -1.483,0 -2.843,-0.295 -4.079,-0.884 -1.237,-0.59 -2.339,-1.369 -3.309,-2.339 -0.97,-0.97 -1.779,-2.083 -2.425,-3.338 -0.648,-1.256 -1.123,-2.568 -1.427,-3.937 l 19.228,0 c 0,0.418 0.009,0.808 0.029,1.169 m -19.884,-6.475 c 0,-1.332 0.171,-2.568 0.513,-3.709 0.343,-1.141 0.865,-2.121 1.569,-2.939 0.704,-0.818 1.598,-1.464 2.682,-1.94 1.084,-0.476 2.348,-0.713 3.794,-0.713 2.397,0 4.431,0.675 6.105,2.026 1.674,1.35 2.853,3.109 3.538,5.278 l 3.594,0 c -0.989,-3.348 -2.587,-5.897 -4.792,-7.646 -2.207,-1.75 -5.078,-2.625 -8.616,-2.625 -3.918,0 -6.895,1.103 -8.929,3.31 -2.036,2.205 -3.053,5.249 -3.053,9.129 0,2.358 0.351,4.65 1.056,6.875 0.703,2.225 1.74,4.212 3.109,5.962 1.37,1.75 3.043,3.157 5.021,4.223 1.978,1.064 4.222,1.597 6.733,1.597 1.787,0 3.366,-0.276 4.736,-0.827 1.369,-0.552 2.539,-1.332 3.509,-2.339 0.97,-1.009 1.702,-2.217 2.196,-3.623 0.494,-1.408 0.742,-2.967 0.742,-4.679 0,-0.837 -0.02,-1.674 -0.057,-2.511 -0.038,-0.837 -0.114,-1.693 -0.228,-2.567 l -23.051,0 c -0.114,-0.685 -0.171,-1.446 -0.171,-2.282 m 41.537,29.27 -8.787,-40.739 -3.537,0 8.729,40.739 3.595,0 z m 27.644,-22.795 c 0.019,0.362 0.028,0.732 0.028,1.113 0,2.511 -0.713,4.508 -2.139,5.991 -1.427,1.484 -3.395,2.225 -5.906,2.225 -1.483,0 -2.844,-0.295 -4.079,-0.884 -1.237,-0.59 -2.34,-1.369 -3.31,-2.339 -0.969,-0.97 -1.778,-2.083 -2.424,-3.338 -0.648,-1.256 -1.123,-2.568 -1.427,-3.937 l 19.228,0 c 0,0.418 0.009,0.808 0.029,1.169 m -19.885,-6.475 c 0,-1.332 0.172,-2.568 0.514,-3.709 0.342,-1.141 0.865,-2.121 1.569,-2.939 0.703,-0.818 1.598,-1.464 2.682,-1.94 1.084,-0.476 2.348,-0.713 3.794,-0.713 2.396,0 4.431,0.675 6.105,2.026 1.674,1.35 2.853,3.109 3.538,5.278 l 3.594,0 c -0.989,-3.348 -2.587,-5.897 -4.793,-7.646 -2.206,-1.75 -5.078,-2.625 -8.615,-2.625 -3.918,0 -6.895,1.103 -8.93,3.31 -2.035,2.205 -3.052,5.249 -3.052,9.129 0,2.358 0.351,4.65 1.055,6.875 0.704,2.225 1.741,4.212 3.11,5.962 1.369,1.75 3.043,3.157 5.021,4.223 1.977,1.064 4.222,1.597 6.733,1.597 1.787,0 3.366,-0.276 4.735,-0.827 1.37,-0.552 2.54,-1.332 3.51,-2.339 0.969,-1.009 1.701,-2.217 2.196,-3.623 0.494,-1.408 0.742,-2.967 0.742,-4.679 0,-0.837 -0.02,-1.674 -0.057,-2.511 -0.038,-0.837 -0.114,-1.693 -0.228,-2.567 l -23.051,0 c -0.114,-0.685 -0.172,-1.446 -0.172,-2.282 m 38.742,17.972 -1.484,-6.789 0.115,0 c 1.141,2.129 2.548,3.86 4.222,5.192 1.673,1.331 3.823,1.997 6.447,1.997 l 0.97,0 0.514,0 c 0.151,0 0.304,-0.02 0.456,-0.057 l -0.799,-3.595 c -0.342,0 -0.684,0.009 -1.027,0.029 -0.342,0.018 -0.684,0.028 -1.027,0.028 -1.597,-0.038 -3.015,-0.362 -4.25,-0.97 -1.237,-0.609 -2.311,-1.417 -3.224,-2.425 -0.913,-1.008 -1.665,-2.159 -2.254,-3.452 -0.59,-1.293 -1.037,-2.624 -1.341,-3.994 l -3.309,-15.405 -3.538,0 6.277,29.441 3.252,0 z M 208.541,0 c 0.742,1.217 1.664,2.215 2.768,2.995 1.102,0.78 2.358,1.36 3.765,1.741 1.407,0.38 2.891,0.57 4.451,0.57 0.988,0 2.082,-0.095 3.28,-0.285 1.199,-0.191 2.311,-0.533 3.338,-1.027 1.027,-0.495 1.883,-1.161 2.568,-1.997 0.685,-0.837 1.027,-1.921 1.027,-3.252 0,-0.723 -0.067,-1.522 -0.2,-2.397 -0.134,-0.875 -0.295,-1.759 -0.485,-2.653 -0.191,-0.894 -0.39,-1.769 -0.599,-2.624 -0.209,-0.856 -0.39,-1.608 -0.542,-2.254 -0.342,-1.636 -0.637,-2.996 -0.884,-4.08 -0.248,-1.084 -0.448,-1.988 -0.599,-2.71 -0.153,-0.723 -0.267,-1.312 -0.343,-1.769 -0.076,-0.456 -0.114,-0.913 -0.114,-1.369 0,-0.533 0.209,-0.866 0.628,-0.999 0.418,-0.133 0.836,-0.199 1.255,-0.199 0.266,0 0.504,0.009 0.713,0.028 0.209,0.019 0.447,0.048 0.713,0.086 l -0.513,-2.796 c -0.951,-0.19 -1.94,-0.285 -2.967,-0.285 -2.017,0 -3.062,1.046 -3.138,3.138 0,0.266 0.009,0.532 0.028,0.799 0.019,0.265 0.048,0.532 0.086,0.799 l -0.114,0.114 c -1.027,-1.712 -2.473,-3.034 -4.336,-3.966 -1.865,-0.931 -3.823,-1.398 -5.877,-1.398 -1.37,0 -2.625,0.153 -3.766,0.457 -1.141,0.305 -2.121,0.779 -2.939,1.426 -0.818,0.647 -1.464,1.484 -1.939,2.511 -0.476,1.027 -0.714,2.262 -0.714,3.708 0,1.56 0.277,2.872 0.828,3.937 0.551,1.065 1.302,1.94 2.253,2.625 0.951,0.685 2.035,1.227 3.253,1.626 1.217,0.399 2.491,0.713 3.822,0.941 1.94,0.304 3.699,0.447 5.278,0.428 1.578,-0.019 2.939,0.123 4.08,0.428 1.178,0.304 2.063,0.856 2.653,1.655 0.589,0.799 0.884,2.168 0.884,4.108 0,0.875 -0.199,1.588 -0.599,2.14 -0.399,0.551 -0.894,0.979 -1.483,1.283 -0.59,0.304 -1.256,0.514 -1.997,0.628 -0.742,0.114 -1.455,0.171 -2.14,0.171 -1.141,0 -2.225,-0.114 -3.252,-0.342 -1.027,-0.228 -1.96,-0.599 -2.796,-1.113 -0.837,-0.513 -1.532,-1.198 -2.083,-2.054 -0.551,-0.856 -0.922,-1.892 -1.112,-3.109 l -3.595,0 c 0.229,1.673 0.714,3.118 1.455,4.336 m 16.233,-9.129 c -0.305,-0.342 -0.733,-0.619 -1.284,-0.827 -0.552,-0.21 -1.132,-0.371 -1.74,-0.485 -0.609,-0.115 -1.227,-0.191 -1.854,-0.229 -0.628,-0.038 -1.17,-0.076 -1.627,-0.114 -1.103,-0.076 -2.33,-0.181 -3.68,-0.314 -1.35,-0.133 -2.615,-0.419 -3.794,-0.855 -1.179,-0.438 -2.168,-1.084 -2.967,-1.94 -0.799,-0.856 -1.198,-2.064 -1.198,-3.623 0,-0.952 0.18,-1.76 0.542,-2.425 0.361,-0.666 0.846,-1.218 1.455,-1.655 0.608,-0.438 1.312,-0.752 2.111,-0.941 0.799,-0.191 1.616,-0.286 2.453,-0.286 2.891,0 5.23,0.779 7.018,2.34 1.788,1.559 2.967,3.651 3.538,6.276 l 1.141,4.964 -0.114,0.114 z m 20.711,13.579 1.883,8.901 3.595,0 -1.883,-8.901 5.877,0 -0.571,-3.024 -5.991,0 -4.051,-18.885 c -0.152,-0.685 -0.257,-1.208 -0.314,-1.569 -0.057,-0.362 -0.085,-0.771 -0.085,-1.227 0,-0.533 0.142,-1.008 0.428,-1.427 0.285,-0.419 0.77,-0.627 1.455,-0.627 1.407,0 2.814,0.114 4.222,0.342 l -0.628,-3.081 c -0.609,-0.076 -1.217,-0.133 -1.825,-0.171 -0.609,-0.038 -1.218,-0.057 -1.826,-0.057 -0.685,0 -1.351,0.048 -1.997,0.142 -0.648,0.096 -1.227,0.295 -1.741,0.6 -0.513,0.304 -0.922,0.731 -1.226,1.283 -0.305,0.551 -0.457,1.264 -0.457,2.14 0,0.304 0.029,0.722 0.086,1.255 0.057,0.532 0.161,1.122 0.314,1.769 l 4.051,19.513 -5.307,0 0.685,3.024 5.306,0 z m 37.971,-11.497 c 0.019,0.362 0.029,0.732 0.029,1.113 0,2.511 -0.714,4.508 -2.14,5.991 -1.426,1.484 -3.395,2.225 -5.905,2.225 -1.484,0 -2.844,-0.295 -4.08,-0.884 -1.236,-0.59 -2.339,-1.369 -3.309,-2.339 -0.97,-0.97 -1.779,-2.083 -2.425,-3.338 -0.647,-1.256 -1.122,-2.568 -1.427,-3.937 l 19.229,0 c 0,0.418 0.009,0.808 0.028,1.169 m -19.884,-6.475 c 0,-1.332 0.171,-2.568 0.513,-3.709 0.343,-1.141 0.865,-2.121 1.569,-2.939 0.704,-0.818 1.598,-1.464 2.682,-1.94 1.084,-0.476 2.348,-0.713 3.794,-0.713 2.397,0 4.431,0.675 6.106,2.026 1.673,1.35 2.852,3.109 3.537,5.278 l 3.595,0 c -0.99,-3.348 -2.588,-5.897 -4.793,-7.646 -2.207,-1.75 -5.078,-2.625 -8.616,-2.625 -3.918,0 -6.895,1.103 -8.929,3.31 -2.036,2.205 -3.053,5.249 -3.053,9.129 0,2.358 0.352,4.65 1.056,6.875 0.703,2.225 1.74,4.212 3.109,5.962 1.37,1.75 3.043,3.157 5.021,4.223 1.978,1.064 4.223,1.597 6.733,1.597 1.788,0 3.367,-0.276 4.736,-0.827 1.369,-0.552 2.539,-1.332 3.509,-2.339 0.97,-1.009 1.702,-2.217 2.197,-3.623 0.493,-1.408 0.741,-2.967 0.741,-4.679 0,-0.837 -0.019,-1.674 -0.057,-2.511 -0.038,-0.837 -0.114,-1.693 -0.228,-2.567 l -23.051,0 c -0.114,-0.685 -0.171,-1.446 -0.171,-2.282 m 71.72,-11.469 1.313,5.306 -0.115,0 c -1.255,-1.94 -2.71,-3.443 -4.364,-4.507 -1.655,-1.065 -3.776,-1.598 -6.362,-1.598 -3.766,0 -6.572,1.093 -8.416,3.281 -1.846,2.187 -2.767,5.087 -2.767,8.701 0,2.244 0.37,4.508 1.112,6.79 0.742,2.282 1.816,4.336 3.224,6.162 1.407,1.826 3.1,3.309 5.078,4.451 1.977,1.141 4.203,1.711 6.676,1.711 2.319,0 4.336,-0.485 6.048,-1.455 1.711,-0.97 2.89,-2.615 3.537,-4.935 l 0.114,0 3.538,16.832 3.594,0 -8.729,-40.739 -3.481,0 z m -3.709,3.737 c 1.598,1.046 2.939,2.377 4.023,3.994 1.084,1.617 1.911,3.404 2.482,5.364 0.571,1.958 0.856,3.851 0.856,5.677 0,2.624 -0.713,4.697 -2.14,6.219 -1.426,1.521 -3.452,2.282 -6.076,2.282 -2.054,0 -3.871,-0.513 -5.449,-1.54 -1.579,-1.027 -2.891,-2.34 -3.937,-3.937 -1.047,-1.598 -1.836,-3.358 -2.368,-5.278 -0.533,-1.921 -0.799,-3.776 -0.799,-5.563 0,-2.51 0.647,-4.603 1.94,-6.276 1.293,-1.675 3.29,-2.511 5.991,-2.511 2.054,0 3.88,0.523 5.477,1.569 m 31.267,37.002 -1.255,-5.763 -3.595,0 1.256,5.763 3.594,0 z m -2.453,-11.298 -6.334,-29.441 -3.537,0 6.276,29.441 3.595,0 z M 370.467,-19 c 0.475,-0.951 1.103,-1.712 1.883,-2.282 0.779,-0.571 1.673,-0.97 2.682,-1.198 1.007,-0.229 2.025,-0.343 3.052,-0.343 0.799,0 1.635,0.105 2.511,0.314 0.874,0.209 1.673,0.532 2.396,0.97 0.722,0.437 1.321,0.999 1.797,1.683 0.476,0.685 0.714,1.502 0.714,2.454 0,0.988 -0.238,1.806 -0.714,2.453 -0.476,0.646 -1.084,1.207 -1.826,1.683 -0.741,0.475 -1.588,0.894 -2.539,1.256 -0.951,0.361 -1.902,0.731 -2.852,1.112 -0.952,0.38 -1.903,0.789 -2.853,1.227 -0.951,0.437 -1.797,0.97 -2.539,1.597 -0.742,0.628 -1.341,1.37 -1.798,2.226 -0.456,0.856 -0.684,1.891 -0.684,3.109 0,1.445 0.342,2.672 1.027,3.68 0.685,1.008 1.559,1.835 2.624,2.482 1.065,0.647 2.244,1.122 3.538,1.427 1.293,0.304 2.529,0.456 3.709,0.456 1.559,0 2.985,-0.171 4.279,-0.513 1.293,-0.343 2.405,-0.894 3.338,-1.655 0.931,-0.761 1.654,-1.74 2.168,-2.938 0.513,-1.198 0.751,-2.653 0.713,-4.365 l -3.594,0 c 0.075,1.141 -0.058,2.111 -0.4,2.91 -0.342,0.799 -0.827,1.464 -1.455,1.997 -0.627,0.532 -1.379,0.922 -2.254,1.169 -0.875,0.247 -1.807,0.371 -2.795,0.371 -0.799,0 -1.626,-0.076 -2.482,-0.228 -0.856,-0.152 -1.636,-0.409 -2.34,-0.77 -0.704,-0.362 -1.293,-0.866 -1.768,-1.512 -0.476,-0.647 -0.714,-1.484 -0.714,-2.511 0,-0.684 0.171,-1.293 0.514,-1.826 0.342,-0.533 0.799,-1.008 1.369,-1.426 0.571,-0.419 1.227,-0.799 1.969,-1.141 0.741,-0.342 1.53,-0.685 2.368,-1.027 1.027,-0.419 2.101,-0.847 3.223,-1.284 1.122,-0.438 2.149,-0.98 3.081,-1.626 0.932,-0.647 1.712,-1.426 2.34,-2.339 0.627,-0.913 0.941,-2.054 0.941,-3.424 0,-1.674 -0.352,-3.081 -1.055,-4.222 -0.705,-1.141 -1.627,-2.064 -2.768,-2.767 -1.141,-0.705 -2.416,-1.207 -3.822,-1.512 -1.408,-0.304 -2.816,-0.457 -4.223,-0.457 -1.446,0 -2.844,0.191 -4.193,0.571 -1.351,0.38 -2.539,0.989 -3.566,1.826 -1.028,0.836 -1.846,1.911 -2.454,3.223 -0.609,1.313 -0.874,2.9 -0.799,4.765 l 3.538,0 c 0,-1.446 0.237,-2.645 0.713,-3.595 m 51.55,17.231 c -0.342,0.875 -0.827,1.607 -1.455,2.197 -0.627,0.589 -1.389,1.046 -2.282,1.369 -0.894,0.323 -1.874,0.485 -2.938,0.485 -2.169,0 -4.043,-0.476 -5.621,-1.426 -1.578,-0.951 -2.9,-2.188 -3.965,-3.709 -1.065,-1.522 -1.854,-3.233 -2.368,-5.135 -0.513,-1.902 -0.77,-3.804 -0.77,-5.706 0,-1.293 0.161,-2.501 0.485,-3.623 0.323,-1.122 0.827,-2.092 1.512,-2.91 0.685,-0.818 1.54,-1.455 2.567,-1.911 1.027,-0.457 2.244,-0.685 3.652,-0.685 2.396,0 4.422,0.685 6.077,2.054 1.654,1.37 2.861,3.138 3.623,5.307 l 3.594,0 c -1.103,-3.424 -2.777,-6.001 -5.021,-7.732 -2.244,-1.731 -5.154,-2.596 -8.729,-2.596 -3.652,0 -6.458,1.103 -8.416,3.31 -1.96,2.205 -2.939,5.135 -2.939,8.786 0,2.283 0.361,4.565 1.084,6.847 0.723,2.282 1.769,4.317 3.139,6.105 1.369,1.788 3.042,3.243 5.021,4.365 1.977,1.122 4.222,1.683 6.732,1.683 1.598,0 3.081,-0.199 4.451,-0.599 1.369,-0.399 2.548,-1.018 3.537,-1.854 0.989,-0.837 1.749,-1.883 2.283,-3.138 0.532,-1.256 0.779,-2.739 0.741,-4.451 l -3.594,0 c 0.075,1.103 -0.057,2.092 -0.4,2.967 m 28.842,-19.542 c 1.503,1.008 2.758,2.291 3.766,3.852 1.007,1.559 1.769,3.271 2.282,5.135 0.514,1.863 0.771,3.651 0.771,5.363 0,2.739 -0.723,4.964 -2.169,6.676 -1.446,1.711 -3.614,2.567 -6.504,2.567 -1.978,0 -3.728,-0.485 -5.249,-1.455 -1.522,-0.97 -2.796,-2.206 -3.823,-3.708 -1.027,-1.503 -1.807,-3.177 -2.339,-5.021 -0.533,-1.846 -0.799,-3.623 -0.799,-5.335 0,-2.853 0.722,-5.164 2.168,-6.933 1.445,-1.768 3.67,-2.653 6.676,-2.653 1.977,0 3.717,0.504 5.22,1.512 m 3.481,25.847 c 1.426,-0.513 2.653,-1.265 3.68,-2.254 1.027,-0.989 1.826,-2.196 2.396,-3.623 0.571,-1.426 0.856,-3.052 0.856,-4.878 0,-2.473 -0.342,-4.888 -1.027,-7.246 -0.684,-2.359 -1.703,-4.451 -3.052,-6.277 -1.351,-1.825 -3.044,-3.29 -5.078,-4.393 -2.036,-1.103 -4.422,-1.655 -7.161,-1.655 -3.804,0 -6.714,1.103 -8.73,3.31 -2.016,2.205 -3.024,5.172 -3.024,8.9 0,2.397 0.361,4.736 1.084,7.018 0.722,2.283 1.788,4.298 3.195,6.048 1.407,1.75 3.129,3.157 5.164,4.223 2.035,1.064 4.365,1.597 6.99,1.597 1.711,0 3.28,-0.256 4.707,-0.77 m 20.112,-0.086 3.481,-25.39 0.114,0 13.808,25.39 3.937,0 -16.604,-29.441 -3.88,0 -4.621,29.441 3.765,0 z m 49.497,-11.497 c 0.019,0.362 0.029,0.732 0.029,1.113 0,2.511 -0.714,4.508 -2.14,5.991 -1.427,1.484 -3.395,2.225 -5.906,2.225 -1.483,0 -2.843,-0.295 -4.079,-0.884 -1.237,-0.59 -2.339,-1.369 -3.309,-2.339 -0.97,-0.97 -1.779,-2.083 -2.425,-3.338 -0.647,-1.256 -1.123,-2.568 -1.427,-3.937 l 19.229,0 c 0,0.418 0.008,0.808 0.028,1.169 m -19.884,-6.475 c 0,-1.332 0.171,-2.568 0.513,-3.709 0.343,-1.141 0.865,-2.121 1.569,-2.939 0.704,-0.818 1.598,-1.464 2.682,-1.94 1.084,-0.476 2.348,-0.713 3.794,-0.713 2.397,0 4.431,0.675 6.105,2.026 1.674,1.35 2.853,3.109 3.538,5.278 l 3.594,0 c -0.989,-3.348 -2.587,-5.897 -4.792,-7.646 -2.207,-1.75 -5.078,-2.625 -8.616,-2.625 -3.918,0 -6.895,1.103 -8.929,3.31 -2.036,2.205 -3.053,5.249 -3.053,9.129 0,2.358 0.351,4.65 1.056,6.875 0.703,2.225 1.74,4.212 3.109,5.962 1.37,1.75 3.043,3.157 5.021,4.223 1.978,1.064 4.222,1.597 6.733,1.597 1.788,0 3.366,-0.276 4.736,-0.827 1.369,-0.552 2.539,-1.332 3.509,-2.339 0.97,-1.009 1.702,-2.217 2.196,-3.623 0.494,-1.408 0.742,-2.967 0.742,-4.679 0,-0.837 -0.02,-1.674 -0.057,-2.511 -0.038,-0.837 -0.114,-1.693 -0.228,-2.567 l -23.051,0 c -0.114,-0.685 -0.171,-1.446 -0.171,-2.282 m 38.741,17.972 -1.483,-6.789 0.114,0 c 1.141,2.129 2.548,3.86 4.222,5.192 1.673,1.331 3.823,1.997 6.447,1.997 l 0.97,0 0.514,0 c 0.151,0 0.304,-0.02 0.456,-0.057 l -0.798,-3.595 c -0.343,0 -0.685,0.009 -1.027,0.029 -0.343,0.018 -0.685,0.028 -1.028,0.028 -1.597,-0.038 -3.015,-0.362 -4.25,-0.97 -1.237,-0.609 -2.311,-1.417 -3.224,-2.425 -0.913,-1.008 -1.664,-2.159 -2.254,-3.452 -0.59,-1.293 -1.037,-2.624 -1.34,-3.994 l -3.31,-15.405 -3.537,0 6.276,29.441 3.252,0 z m 14.207,-37.258 c 1.102,0 2.034,0.343 2.795,1.027 0.761,0.685 1.37,1.408 1.826,2.168 l 2.682,4.622 -5.42,29.441 3.765,0 4.223,-24.99 0.114,0 13.579,24.99 3.88,0 -20.94,-36.345 c -1.522,-2.624 -3.899,-3.937 -7.132,-3.937 -0.494,0 -0.999,0.039 -1.512,0.114 -0.514,0.077 -1.036,0.134 -1.569,0.172 l 0.685,2.909 c 1.027,-0.114 2.035,-0.171 3.024,-0.171" />
          </g>
        </g>
      </g>
    </g>
  </g>
</svg>
