<?xml version="1.0" encoding="UTF-8" standalone="no"?>
<!-- Created with Inkscape (http://www.inkscape.org/) -->

<svg
   xmlns:dc="http://purl.org/dc/elements/1.1/"
   xmlns:cc="http://creativecommons.org/ns#"
   xmlns:rdf="http://www.w3.org/1999/02/22-rdf-syntax-ns#"
   xmlns:svg="http://www.w3.org/2000/svg"
   xmlns="http://www.w3.org/2000/svg"
   xmlns:sodipodi="http://sodipodi.sourceforge.net/DTD/sodipodi-0.dtd"
   xmlns:inkscape="http://www.inkscape.org/namespaces/inkscape"
   id="svg4136"
   version="1.1"
   inkscape:version="0.92.4 (5da689c313, 2019-01-14)"
   xml:space="preserve"
   width="498.13351"
   height="113.31553"
   viewBox="0 0 498.13351 113.31553"
   sodipodi:docname="cc-regional-partner.svg"><metadata
     id="metadata4142"><rdf:RDF><cc:Work
         rdf:about=""><dc:format>image/svg+xml</dc:format><dc:type
           rdf:resource="http://purl.org/dc/dcmitype/StillImage" /><dc:title /></cc:Work></rdf:RDF></metadata><defs
     id="defs4140"><clipPath
       clipPathUnits="userSpaceOnUse"
       id="clipPath4150"><path
         d="m 21,21 792,0 0,612 -792,0 0,-612 z"
         id="path4152"
         inkscape:connector-curvature="0" /></clipPath><clipPath
       clipPathUnits="userSpaceOnUse"
       id="clipPath4166"><path
         d="M 0,0 834,0 834,654 0,654 0,0 Z"
         id="path4168"
         inkscape:connector-curvature="0" /></clipPath><clipPath
       clipPathUnits="userSpaceOnUse"
       id="clipPath4224"><path
         d="M 0,0 834,0 834,654 0,654 0,0 Z"
         id="path4226"
         inkscape:connector-curvature="0" /></clipPath><clipPath
       clipPathUnits="userSpaceOnUse"
       id="clipPath4150-6"><path
         d="m 21,21 792,0 0,612 -792,0 0,-612 z"
         id="path4152-1"
         inkscape:connector-curvature="0" /></clipPath></defs><sodipodi:namedview
     pagecolor="#ffffff"
     bordercolor="#666666"
     borderopacity="1"
     objecttolerance="10"
     gridtolerance="10"
     guidetolerance="10"
     inkscape:pageopacity="0"
     inkscape:pageshadow="2"
     inkscape:window-width="1920"
     inkscape:window-height="1027"
     id="namedview4138"
     showgrid="false"
     inkscape:zoom="1.0495413"
     inkscape:cx="86.614839"
     inkscape:cy="56.657769"
     inkscape:window-x="1912"
     inkscape:window-y="-8"
     inkscape:window-maximized="1"
     inkscape:current-layer="g4144"
     fit-margin-top="0"
     fit-margin-left="0"
     fit-margin-right="0"
     fit-margin-bottom="0" /><g
     id="g4144"
     inkscape:groupmode="layer"
     inkscape:label="CC REGIONAL PARTNER"
     transform="matrix(1.25,0,0,-1.25,-272.18324,465.40776)"><g
   transform="translate(-36.532907,-27.393491)"
   id="g4146"><g
     id="g4148"
     clip-path="url(#clipPath4150-6)"><g
       id="g4154"
       transform="translate(282.6905,371.7507)"><path
         d="m 0,0 -9.83,1.296 c -0.324,-2.484 -1.08,-3.781 -3.349,-3.781 -2.269,0 -3.565,1.837 -3.565,6.59 0,4.753 1.621,6.589 3.781,6.589 2.161,0 3.241,-1.836 3.241,-3.888 l 9.614,1.404 c -0.108,3.997 -4.213,9.938 -12.747,9.938 -8.534,0 -15.556,-4.213 -15.556,-14.043 0,-9.83 6.698,-14.151 15.124,-14.151 8.426,0 12.639,5.185 13.287,10.046 m 33.055,4.051 c 0,8.966 -6.319,14.097 -15.285,14.097 -8.966,0 -15.286,-5.131 -15.286,-14.097 0,-8.966 6.32,-14.097 15.286,-14.097 8.966,0 15.285,5.131 15.285,14.097 M 21.388,4.105 c 0,-2.917 -0.702,-6.374 -3.618,-6.374 -2.917,0 -3.619,3.457 -3.619,6.374 0,2.917 0.702,6.373 3.619,6.373 2.916,0 3.618,-3.456 3.618,-6.373 M 81.45,-9.29 l 0,18.148 c 0,6.049 -3.619,9.29 -9.344,9.29 -5.239,0 -7.832,-2.7 -8.804,-3.889 l -0.108,0 c -0.54,1.081 -2.647,3.889 -7.778,3.889 -5.185,0 -7.13,-2.808 -7.886,-3.889 l -0.108,0 0,3.133 -11.234,0 0,-26.682 11.342,0 0,15.015 c 0,2.809 1.08,4.213 3.025,4.213 1.944,0 2.593,-1.188 2.593,-3.673 l 0,-15.555 11.342,0 0,15.015 c 0,2.809 1.08,4.213 3.025,4.213 1.944,0 2.592,-1.188 2.592,-3.673 l 0,-15.555 11.343,0 z m 34.459,13.395 c 0,9.398 -5.077,14.043 -11.126,14.043 -6.05,0 -7.562,-3.781 -7.562,-3.781 l -0.108,0 0,3.025 -11.235,0 0,-36.08 11.343,0 0,12.315 0.108,0 c 0,0 1.728,-3.673 7.13,-3.673 6.265,0 11.45,4.753 11.45,14.151 m -11.666,0 c 0,-3.133 -0.865,-6.374 -3.889,-6.374 -3.025,0 -3.349,3.673 -3.349,5.618 l 0,1.512 c 0,1.945 0.54,5.617 3.565,5.617 3.024,0 3.673,-3.24 3.673,-6.373 m 43.101,-13.395 0,26.682 -11.343,0 0,-14.907 c 0,-3.133 -1.296,-4.213 -3.133,-4.213 -1.728,0 -2.484,1.08 -2.484,3.672 l 0,15.448 -11.343,0 0,-18.04 c 0,-6.698 3.673,-9.398 9.074,-9.398 5.402,0 7.562,3.348 7.886,3.997 l 0.108,0 0,-3.241 11.235,0 z m 24.737,0.54 -1.296,7.346 -0.108,0 c 0,0 -1.081,-0.54 -2.485,-0.54 -1.404,0 -2.268,0.648 -2.268,2.16 l 0,9.722 5.941,0 0,7.454 -5.941,0 0,8.426 -0.108,0 -11.235,-2.377 0,-6.049 -3.889,0 0,-7.454 3.889,0 0,-11.342 c 0,-7.238 5.293,-8.642 9.83,-8.642 4.537,0 7.67,1.296 7.67,1.296 m 30.895,6.59 -9.614,2.16 c -0.432,-1.296 -1.729,-2.809 -3.997,-2.809 -2.269,0 -3.673,1.621 -3.673,4.105 l 0,0.324 17.284,0 0,2.269 c 0,8.642 -5.077,14.259 -14.151,14.259 -9.074,0 -14.584,-5.509 -14.584,-14.151 0,-8.642 5.186,-14.043 15.016,-14.043 9.83,0 12.855,5.617 13.719,7.886 m -11.343,9.83 -6.049,0 c 0,2.268 0.864,4.213 3.133,4.213 2.268,0 2.916,-1.837 2.916,-3.889 l 0,-0.324 z m 37.354,-9.277 c -0.631,-2.21 -2.736,-6.315 -7.894,-6.315 -5.157,0 -8.63,4.421 -8.63,11.683 0,7.263 3.473,11.525 8.736,11.525 5.262,0 7.157,-4.368 7.473,-6.157 l 2.105,1.053 c -0.211,1.263 -2.527,7.209 -9.473,7.209 -6.947,0 -11.262,-5.736 -11.262,-13.63 0,-7.894 3.999,-13.788 10.946,-13.788 6.947,0 9.473,5.157 10.104,7.368 l -2.105,1.052 z m 29.26,-5.894 -0.105,0 c 0,0 -0.527,-0.316 -1.263,-0.316 -0.737,0 -1.579,0.316 -1.579,2.211 l 0,15.472 c 0,5.262 -3.579,7.525 -8.841,7.525 -5.263,0 -8.105,-2.473 -9.263,-5.946 l 1.895,-1.263 c 0.842,2.526 2.421,5.157 7.157,5.157 4.737,0 6.736,-2 6.736,-5.473 l 0,-1.053 c -1.263,-0.526 -3.999,-1.263 -5.262,-1.579 -1.263,-0.315 -4.631,-1.052 -6.21,-1.684 -1.579,-0.631 -5.263,-2.315 -5.263,-7.472 0,-5.158 3.789,-8.105 8.526,-8.105 4.736,0 7.473,3.158 8.209,4.947 l 0.106,0 0,-0.421 c 0,-1.368 0.21,-2.21 0.631,-2.947 0.421,-0.737 1.263,-1.368 2.631,-1.368 1.369,0 2.316,0.631 2.316,0.631 l -0.421,1.684 z m -5.263,7.157 c 0,-4.21 -3.894,-7.578 -8.209,-7.578 -3.368,0 -6.105,2.21 -6.105,6 0,3.789 2.421,5.052 3.579,5.578 1.157,0.526 4.104,1.263 5.367,1.579 1.263,0.315 4,1.052 5.263,1.579 l 0.105,0 0,-7.158 z m 31.102,-8.946 0,16.524 c 0,4 -0.842,6.105 -2.421,7.684 -1.579,1.579 -3.789,2.526 -6.526,2.526 -2.736,0 -6.63,-0.947 -8.946,-5.473 l -0.105,0 0,4.736 -2.211,0 0,-25.997 2.316,0 0,14.63 c 0,3.684 1.421,6.105 2.894,7.578 1.474,1.474 3.368,2.421 5.789,2.421 2.421,0 3.947,-0.842 5,-1.895 1.052,-1.052 1.894,-2.526 1.894,-6.21 l 0,-16.524 2.316,0 z m 27.47,1.789 -0.105,0 c 0,0 -0.526,-0.316 -1.263,-0.316 -0.737,0 -1.579,0.316 -1.579,2.211 l 0,15.472 c 0,5.262 -3.578,7.525 -8.841,7.525 -5.262,0 -8.104,-2.473 -9.262,-5.946 l 1.895,-1.263 c 0.842,2.526 2.42,5.157 7.157,5.157 4.736,0 6.736,-2 6.736,-5.473 l 0,-1.053 c -1.263,-0.526 -4,-1.263 -5.263,-1.579 -1.263,-0.315 -4.631,-1.052 -6.21,-1.684 -1.578,-0.631 -5.262,-2.315 -5.262,-7.472 0,-5.158 3.789,-8.105 8.525,-8.105 4.737,0 7.473,3.158 8.21,4.947 l 0.105,0 0,-0.421 c 0,-1.368 0.211,-2.21 0.632,-2.947 0.421,-0.737 1.263,-1.368 2.631,-1.368 1.368,0 2.316,0.631 2.316,0.631 l -0.422,1.684 z m -5.262,7.157 c 0,-4.21 -3.894,-7.578 -8.21,-7.578 -3.368,0 -6.104,2.21 -6.104,6 0,3.789 2.42,5.052 3.578,5.578 1.158,0.526 4.105,1.263 5.368,1.579 1.263,0.315 4,1.052 5.263,1.579 l 0.105,0 0,-7.158 z m 30.996,-8.946 0,37.259 -2.315,0 0,-15.893 -0.106,0 c 0,0 -1.578,5.368 -8.209,5.368 -6.631,0 -10.841,-5.999 -10.841,-13.788 0,-7.736 3.894,-13.683 10.42,-13.683 6.525,0 8.736,5.473 8.736,5.473 l 0.105,0 0,-4.736 2.21,0 z m -2.315,11.262 c 0,-4.736 -2.947,-9.999 -8.526,-9.999 -5.684,0 -8.21,5.631 -8.21,11.63 0,6.052 2.632,11.841 8.421,11.841 5.789,0 8.315,-5.473 8.315,-10.209 l 0,-3.263 z m 31.049,-9.473 -0.106,0 c 0,0 -0.526,-0.316 -1.263,-0.316 -0.737,0 -1.579,0.316 -1.579,2.211 l 0,15.472 c 0,5.262 -3.578,7.525 -8.841,7.525 -5.262,0 -8.104,-2.473 -9.262,-5.946 l 1.895,-1.263 c 0.842,2.526 2.42,5.157 7.157,5.157 4.736,0 6.736,-2 6.736,-5.473 l 0,-1.053 c -1.263,-0.526 -4,-1.263 -5.263,-1.579 -1.263,-0.315 -4.631,-1.052 -6.21,-1.684 -1.578,-0.631 -5.262,-2.315 -5.262,-7.472 0,-5.158 3.789,-8.105 8.525,-8.105 4.737,0 7.473,3.158 8.21,4.947 l 0.105,0 0,-0.421 c 0,-1.368 0.211,-2.21 0.632,-2.947 0.421,-0.737 1.263,-1.368 2.631,-1.368 1.368,0 2.316,0.631 2.316,0.631 l -0.421,1.684 z m -5.263,7.157 c 0,-4.21 -3.894,-7.578 -8.21,-7.578 -3.368,0 -6.104,2.21 -6.104,6 0,3.789 2.42,5.052 3.578,5.578 1.158,0.526 4.105,1.263 5.368,1.579 1.263,0.315 4,1.052 5.263,1.579 l 0.105,0 0,-7.158 z"
         style="fill:#231f20;fill-opacity:1;fill-rule:nonzero;stroke:none"
         id="path4156"
         inkscape:connector-curvature="0" /></g></g></g><text
   y="-288.3873"
   x="373.09698"
   style="font-style:italic;font-variant:normal;font-weight:300;font-stretch:normal;line-height:0%;font-family:'Helvetica 45 Light';-inkscape-font-specification:HelveticaNeue-LightItalic;writing-mode:lr-tb;fill:#231f20;fill-opacity:1;fill-rule:nonzero;stroke:none"
   id="text4158"
   transform="scale(1,-1)"><tspan
     x="373.09698 384.0509 402.22073 421.59326 428.90671 448.27921 467.03415 485.20395 492.5174 502.85373 522.81134 540.98114 552.5202 563.44159 582.19647 600.36633"
     y="-288.3873"
     sodipodi:role="line"
     id="tspan4160"
     style="font-style:italic;font-variant:normal;font-weight:normal;font-stretch:normal;font-size:32.50419998px;line-height:1.25;font-family:sans-serif;-inkscape-font-specification:'sans-serif Italic'">regional partner</tspan></text>

</g></svg>